<svg width="13" height="13" viewBox="0 0 13 13" fill="none" xmlns="http://www.w3.org/2000/svg">
<g clip-path="url(#clip0_2_749)">
<path d="M2.25903 4.22656L4.23901 4.22656V2.24658L2.25903 2.24658L2.25903 4.22656ZM5.229 10.1665L7.20899 10.1665V8.18652L5.229 8.18652V10.1665ZM2.25903 10.1665H4.23901V8.18652H2.25903L2.25903 10.1665ZM2.25903 7.19653L4.23901 7.19653V5.21655L2.25903 5.21655L2.25903 7.19653ZM5.229 7.19653L7.20899 7.19653V5.21655L5.229 5.21655L5.229 7.19653ZM8.19898 2.24658V4.22656L10.179 4.22656V2.24658L8.19898 2.24658ZM5.229 4.22656L7.20899 4.22656L7.20899 2.24658L5.229 2.24658V4.22656ZM8.19898 7.19653L10.179 7.19653V5.21655L8.19898 5.21655V7.19653ZM8.19898 10.1665L10.179 10.1665V8.18652L8.19898 8.18652V10.1665Z" fill="#EBD96B"/>
</g>
<defs>
<clipPath id="clip0_2_749">
<rect width="11.8799" height="11.8799" fill="white" transform="translate(0.279297 0.266846)"/>
</clipPath>
</defs>
</svg>
