<svg width="13" height="13" viewBox="0 0 13 13" fill="none" xmlns="http://www.w3.org/2000/svg">
<path d="M7.93134 7.59632L7.54029 7.59632L7.40169 7.46267C7.88679 6.89837 8.17884 6.16578 8.17884 5.36884C8.17884 3.5918 6.7384 2.15137 4.96137 2.15137C3.18433 2.15137 1.7439 3.5918 1.7439 5.36884C1.7439 7.14587 3.18433 8.58631 4.96137 8.58631C5.75831 8.58631 6.4909 8.29426 7.0552 7.80916L7.18884 7.94776V8.33881L9.66382 10.8088L10.4014 10.0713L7.93134 7.59632ZM4.96137 7.59632C3.72883 7.59632 2.73389 6.60137 2.73389 5.36884C2.73389 4.1363 3.72883 3.14136 4.96137 3.14136C6.1939 3.14136 7.18884 4.1363 7.18884 5.36884C7.18884 6.60137 6.1939 7.59632 4.96137 7.59632Z" fill="#6E6F72"/>
</svg>
