<svg width="15" height="14" viewBox="0 0 15 14" fill="none" xmlns="http://www.w3.org/2000/svg">
<path d="M4.90326 10.5347C4.16819 10.5347 3.57346 11.1138 3.57346 11.8217C3.57346 12.5295 4.16819 13.1086 4.90326 13.1086C5.63833 13.1086 6.23975 12.5295 6.23975 11.8217C6.23975 11.1138 5.63833 10.5347 4.90326 10.5347ZM0.893799 0.23877L0.893799 1.52576L2.23029 1.52576L4.63596 6.40988L3.73383 7.98644C3.62692 8.16661 3.56677 8.37897 3.56677 8.60419C3.56677 9.31203 4.16819 9.89118 4.90326 9.89118L12.9222 9.89118V8.60419L5.18392 8.60419C5.09037 8.60419 5.01686 8.53341 5.01686 8.44332L5.03691 8.3661L5.63833 7.3172L10.6167 7.3172C11.1179 7.3172 11.559 7.05337 11.7862 6.6544L14.1785 2.47813C14.2319 2.38804 14.2587 2.27865 14.2587 2.16925C14.2587 1.81533 13.958 1.52576 13.5904 1.52576L3.7071 1.52576L3.07896 0.23877L0.893799 0.23877ZM11.5857 10.5347C10.8506 10.5347 10.2559 11.1138 10.2559 11.8217C10.2559 12.5295 10.8506 13.1086 11.5857 13.1086C12.3208 13.1086 12.9222 12.5295 12.9222 11.8217C12.9222 11.1138 12.3208 10.5347 11.5857 10.5347Z" fill="#959292"/>
</svg>
